:FULLY-SPECIFIED
:FORCE-ALL-JOINTS-BE-3DOF
:DEGREES
1053
root 1.20588 15.1597 32.5518 4.89593 -3.39133 363.446
lfemur 8.7876 0.458562 5.6779
ltibia -1.24765e-14 0 0
lfoot -30.3818 -11.1885 0
ltoes -34.242 0 0
rfemur -31.0518 -15.6647 -6.30292
rtibia 50.0147 0 0
rfoot -21.8577 5.41407 0
rtoes -40.9472 0 0
lowerback -1.83036 -0.0563275 -0.238439
upperback -0.483064 -0.037403 -6.04475
thorax 0.52672 -0.0203239 -6.13217
lowerneck -7.00797 0.738651 6.54347
upperneck 1.28728 0.299532 3.68153
head 1.59449 0.276605 0.06039
lclavicle -5.25533e-15 -1.37793e-14 0
lhumerus -58.7218 -46.8838 115.413
lradius 55.8092 0 0
lwrist 25.5532 0 0
lhand 37.4372 25.3161 0
lfingers 7.12502 0 0
lthumb 60.2389 38.8431 0
rclavicle -5.25533e-15 -1.37793e-14 0
rhumerus 2.13115 -23.5149 0.619046
rradius 27.4846 0 0
rwrist -9.70979 0 0
rhand -30.5116 -42.0178 0
rfingers 7.12502 0 0
rthumb -3.81148 -791.963 0
1054
root 1.20754 15.1602 32.5565 4.89574 -3.37669 363.431
lfemur 8.80096 0.446279 5.68709
ltibia -1.77063e-14 0 0
lfoot -30.3932 -11.1694 0
ltoes -34.2647 0 0
rfemur -31.0106 -15.6437 -6.30175
rtibia 49.9961 0 0
rfoot -21.852 5.39287 0
rtoes -40.9324 0 0
lowerback -1.84558 -0.0566302 -0.24335
upperback -0.480904 -0.0370377 -6.03836
thorax 0.537545 -0.0199593 -6.12261
lowerneck -7.02629 0.724392 6.52764
upperneck 1.30967 0.278575 3.69803
head 1.60465 0.267465 0.0675589
lclavicle -4.88065e-15 -1.76368e-14 0
lhumerus -58.7207 -46.906 115.422
lradius 55.8117 0 0
lwrist 25.5707 0 0
lhand 37.4487 25.3104 0
lfingers 7.12502 0 0
lthumb 60.2488 38.8268 0
rclavicle -4.88065e-15 -1.76368e-14 0
rhumerus 2.09889 -23.4981 0.634416
rradius 27.4827 0 0
rwrist -9.68252 0 0
rhand -30.5107 -41.9905 0
rfingers 7.12502 0 0
rthumb -3.81061 -791.936 0
1055
root 1.20927 15.1607 32.5613 4.89544 -3.36423 363.415
lfemur 8.81571 0.435883 5.69521
ltibia -1.67605e-14 0 0
lfoot -30.4055 -11.1509 0
ltoes -34.2856 0 0
rfemur -30.9703 -15.6246 -6.30125
rtibia 49.9771 0 0
rfoot -21.8473 5.37553 0
rtoes -40.9181 0 0
lowerback -1.86019 -0.0562955 -0.249706
upperback -0.478569 -0.0358105 -6.03117
thorax 0.548299 -0.0191618 -6.11134
lowerneck -7.0455 0.710522 6.51199
upperneck 1.33128 0.258167 3.71207
head 1.61474 0.258526 0.0739436
lclavicle -4.14782e-15 -1.22864e-14 0
lhumerus -58.7156 -46.9251 115.429
lradius 55.814 0 0
lwrist 25.5865 0 0
lhand 37.4584 25.3031 0
lfingers 7.12502 0 0
lthumb 60.257 38.8107 0
rclavicle -4.14782e-15 -1.22864e-14 0
rhumerus 2.06808 -23.4848 0.651261
rradius 27.4812 0 0
rwrist -9.65804 0 0
rhand -30.5132 -41.9679 0
rfingers 7.12502 0 0
rthumb -3.81305 -791.913 0
1056
root 1.21101 15.1612 32.5659 4.8952 -3.35451 363.402
lfemur 8.83121 0.427919 5.70204
ltibia -1.1475e-14 0 0
lfoot -30.4179 -11.1337 0
ltoes -34.3043 0 0
rfemur -30.9325 -15.608 -6.30132
rtibia 49.9583 0 0
rfoot -21.8438 5.3627 0
rtoes -40.9046 0 0
lowerback -1.87367 -0.0553881 -0.257278
upperback -0.476272 -0.0338436 -6.02332
thorax 0.558458 -0.0180033 -6.09865
lowerneck -7.0644 0.697692 6.49727
upperneck 1.35086 0.239306 3.72283
head 1.62415 0.25021 0.079185
lclavicle -2.84818e-15 -4.26548e-15 0
lhumerus -58.7066 -46.9394 115.434
lradius 55.8158 0 0
lwrist 25.5997 0 0
lhand 37.4659 25.295 0
lfingers 7.12502 0 0
lthumb 60.2634 38.7958 0
rclavicle -2.84818e-15 -4.26548e-15 0
rhumerus 2.03999 -23.4749 0.668959
rradius 27.4802 0 0
rwrist -9.63731 0 0
rhand -30.5189 -41.9505 0
rfingers 7.12502 0 0
rthumb -3.81858 -791.896 0
1057
root 1.21273 15.1616 32.5703 4.89516 -3.3481 363.389
lfemur 8.84685 0.422928 5.70735
ltibia -3.68592e-15 0 0
lfoot -30.43 -11.1184 0
ltoes -34.3202 0 0
rfemur -30.8988 -15.5943 -6.3019
rtibia 49.9404 0 0
rfoot -21.8414 5.35502 0
rtoes -40.8925 0 0
lowerback -1.8855 -0.0539727 -0.26584
upperback -0.474227 -0.0312592 -6.01496
thorax 0.567495 -0.0165556 -6.08483
lowerneck -7.08183 0.68655 6.48422
upperneck 1.36714 0.222994 3.72945
head 1.63228 0.242941 0.0829242
lclavicle -7.73117e-16 -1.11283e-16 0
lhumerus -58.6932 -46.947 115.435
lradius 55.8165 0 0
lwrist 25.6093 0 0
lhand 37.4709 25.2868 0
lfingers 7.12502 0 0
lthumb 60.2676 38.783 0
rclavicle -7.73117e-16 -1.11283e-16 0
rhumerus 2.01591 -23.4681 0.686891
rradius 27.4801 0 0
rwrist -9.62128 0 0
rhand -30.5276 -41.9383 0
rfingers 7.12502 0 0
rthumb -3.82699 -791.884 0
1058
root 1.21436 15.1619 32.5743 4.89549 -3.34555 363.379
lfemur 8.86202 0.421454 5.71093
ltibia 4.77083e-15 0 0
lfoot -30.4413 -11.1055 0
ltoes -34.3328 0 0
rfemur -30.8708 -15.5841 -6.30291
rtibia 49.924 0 0
rfoot -21.8403 5.35313 0
rtoes -40.8819 0 0
lowerback -1.89516 -0.052114 -0.275166
upperback -0.472648 -0.0281795 -6.00623
thorax 0.574884 -0.0148906 -6.07016
lowerneck -7.09659 0.677747 6.4736
upperneck 1.37887 0.210229 3.73109
head 1.63852 0.237143 0.0848023
lclavicle 2.28602e-15 -6.36111e-15 0
lhumerus -58.6755 -46.9462 115.433
lradius 55.8159 0 0
lwrist 25.6146 0 0
lhand 37.4729 25.2791 0
lfingers 7.12502 0 0
lthumb 60.2694 38.7735 0
rclavicle 2.28602e-15 -6.36111e-15 0
rhumerus 1.99712 -23.4643 0.704434
rradius 27.4811 0 0
rwrist -9.61091 0 0
rhand -30.5391 -41.9317 0
rfingers 7.12502 0 0
rthumb -3.83804 -791.877 0
1059
root 1.21619 15.1623 32.578 4.90031 -3.35402 363.369
lfemur 8.87458 0.431906 5.71281
ltibia 0.00274852 0 0
lfoot -30.4516 -11.0979 0
ltoes -34.3403 0 0
rfemur -30.8543 -15.5774 -6.30227
rtibia 49.9063 0 0
rfoot -21.8401 5.36538 0
rtoes -40.8704 0 0
lowerback -1.90292 -0.049927 -0.284572
upperback -0.474076 -0.0249187 -5.99503
thorax 0.578121 -0.0132392 -6.0528
lowerneck -7.0967 0.675374 6.46607
upperneck 1.36925 0.208459 3.72405
head 1.63536 0.235692 0.0837686
lclavicle 2.99713e-15 -9.43039e-15 0
lhumerus -58.6415 -46.9139 115.419
lradius 55.8078 0 0
lwrist 25.6135 0 0
lhand 37.4755 25.2864 0
lfingers 7.12502 0 0
lthumb 60.2716 38.7784 0
rclavicle 2.99713e-15 -9.43039e-15 0
rhumerus 1.98862 -23.4507 0.720919
rradius 27.4867 0 0
rwrist -9.6024 0 0
rhand -30.5533 -41.9241 0
rfingers 7.12502 0 0
rthumb -3.85178 -791.869 0
1060
root 1.21823 15.1627 32.5819 4.90655 -3.36506 363.358
lfemur 8.87978 0.4457 5.71229
ltibia 0.0219882 0 0
lfoot -30.4697 -11.0892 0
ltoes -34.346 0 0
rfemur -30.838 -15.5693 -6.30109
rtibia 49.8867 0 0
rfoot -21.8397 5.37985 0
rtoes -40.8571 0 0
lowerback -1.91148 -0.0480386 -0.29394
upperback -0.476154 -0.0220714 -5.98306
thorax 0.581092 -0.0118099 -6.03466
lowerneck -7.09314 0.674392 6.45802
upperneck 1.35429 0.209161 3.71766
head 1.62983 0.235248 0.0831066
lclavicle 3.71518e-15 -4.23765e-15 0
lhumerus -58.6041 -46.8763 115.404
lradius 55.7978 0 0
lwrist 25.6118 0 0
lhand 37.4801 25.2977 0
lfingers 7.12502 0 0
lthumb 60.2755 38.7855 0
rclavicle 3.71518e-15 -4.23765e-15 0
rhumerus 1.98179 -23.4324 0.735517
rradius 27.4928 0 0
rwrist -9.58756 0 0
rhand -30.5682 -41.9166 0
rfingers 7.12502 0 0
rthumb -3.86614 -791.861 0
1061
root 1.22039 15.1631 32.5861 4.91376 -3.37798 363.346
lfemur 8.8692 0.462348 5.70635
ltibia 0.07421 0 0
lfoot -30.5033 -11.0764 0
ltoes -34.3497 0 0
rfemur -30.8221 -15.5598 -6.29956
rtibia 49.8658 0 0
rfoot -21.8391 5.39557 0
rtoes -40.8427 0 0
lowerback -1.92053 -0.0465576 -0.303087
upperback -0.478697 -0.0197849 -5.97079
thorax 0.583799 -0.0106738 -6.01634
lowerneck -7.08665 0.674729 6.44973
upperneck 1.33559 0.212055 3.71223
head 1.62258 0.235749 0.0828578
lclavicle 4.36196e-15 4.23764e-15 0
lhumerus -58.5653 -46.8358 115.388
lradius 55.7867 0 0
lwrist 25.6094 0 0
lhand 37.4865 25.3117 0
lfingers 7.12502 0 0
lthumb 60.281 38.7937 0
rclavicle 4.36196e-15 4.23764e-15 0
rhumerus 1.97692 -23.4106 0.747454
rradius 27.4993 0 0
rwrist -9.56719 0 0
rhand -30.5834 -41.91 0
rfingers 7.12502 0 0
rthumb -3.88082 -791.854 0
1062
root 1.2226 15.1636 32.5903 4.9215 -3.39212 363.334
lfemur 8.83444 0.481361 5.69197
ltibia 0.175905 0 0
lfoot -30.5603 -11.0564 0
ltoes -34.3513 0 0
rfemur -30.8068 -15.549 -6.29787
rtibia 49.8445 0 0
rfoot -21.8384 5.41156 0
rtoes -40.8278 0 0
lowerback -1.92977 -0.0455924 -0.311831
upperback -0.48152 -0.0182067 -5.95869
thorax 0.586249 -0.00990205 -5.99845
lowerneck -7.07799 0.676316 6.4415
upperneck 1.31472 0.216865 3.70808
head 1.61427 0.237132 0.0830639
lclavicle 4.85921e-15 1.1016e-14 0
lhumerus -58.527 -46.7949 115.372
lradius 55.775 0 0
lwrist 25.6064 0 0
lhand 37.4941 25.3269 0
lfingers 7.12502 0 0
lthumb 60.2874 38.8018 0
rclavicle 4.85921e-15 1.1016e-14 0
rhumerus 1.97428 -23.3868 0.755961
rradius 27.5057 0 0
rwrist -9.54208 0 0
rhand -30.5986 -41.9052 0
rfingers 7.12502 0 0
rthumb -3.89553 -791.849 0
